<?xml version="1.0" standalone="no"?>
<!DOCTYPE svg PUBLIC "-//W3C//DTD SVG 20010904//EN"
 "http://www.w3.org/TR/2001/REC-SVG-20010904/DTD/svg10.dtd">
<svg version="1.0" xmlns="http://www.w3.org/2000/svg"
 width="1024.000000pt" height="1024.000000pt" viewBox="0 0 1024.000000 1024.000000"
 preserveAspectRatio="xMidYMid meet">

<g transform="translate(0.000000,1024.000000) scale(0.100000,-0.100000)"
fill="#000000" stroke="none">
<path d="M4654 8332 c-254 -229 -706 -637 -1005 -907 -299 -269 -566 -511
-594 -537 l-50 -48 728 0 727 0 318 283 c175 155 325 288 334 295 14 11 29 1
109 -69 141 -123 214 -193 211 -202 -1 -5 2 -6 6 -3 10 6 45 -28 37 -36 -3 -3
3 -11 12 -19 17 -13 17 -13 3 5 -12 16 -9 15 17 -4 18 -13 29 -28 26 -33 -3
-6 -2 -7 4 -4 5 3 25 -9 43 -28 25 -26 28 -33 14 -30 -11 2 -25 4 -32 4 -7 1
-10 6 -7 11 4 6 12 7 18 4 7 -4 8 -3 4 2 -12 13 -30 12 -46 -4 -9 -8 -17 -9
-25 -3 -6 5 -18 6 -25 2 -9 -6 -10 -11 -2 -15 6 -4 11 -2 11 4 0 6 5 8 11 5 6
-4 8 -14 5 -22 -3 -8 -2 -23 4 -33 7 -13 6 -21 -4 -29 -7 -6 -16 -8 -19 -5 -3
4 -4 -5 -1 -20 3 -21 1 -24 -13 -20 -11 4 -14 3 -7 -3 6 -4 14 -15 17 -23 4
-12 6 -11 6 3 1 9 6 17 12 17 6 0 8 -7 5 -15 -3 -9 1 -18 9 -21 11 -5 12 -11
5 -24 -7 -13 -6 -21 2 -26 7 -4 10 -4 6 1 -14 15 12 45 37 43 13 -1 21 -6 19
-10 -3 -4 -11 -5 -18 -2 -7 3 -16 -2 -19 -10 -4 -9 -2 -16 3 -16 6 0 10 -7 10
-15 0 -8 5 -15 10 -15 6 0 10 -5 10 -11 0 -8 -4 -9 -13 0 -8 6 -16 8 -19 6 -3
-3 -21 11 -39 32 -19 21 -37 38 -40 38 -3 0 -78 65 -168 145 -89 80 -165 146
-170 148 -16 5 -487 -425 -519 -474 -143 -223 -113 -501 78 -724 32 -37 41
-43 58 -35 11 6 99 81 195 169 96 87 178 158 182 158 4 0 79 -67 168 -148 218
-202 201 -190 234 -165 49 40 133 155 162 226 27 64 41 124 45 194 3 34 35 44
63 19 21 -20 21 -21 3 -40 -11 -12 -24 -17 -31 -13 -8 5 -10 4 -5 -3 10 -17
23 -15 46 8 11 11 26 20 33 20 6 -1 1 -7 -12 -14 -14 -8 -19 -16 -13 -20 14
-9 8 -92 -12 -146 -30 -82 -109 -194 -198 -283 l-89 -88 -185 173 c-102 95
-193 177 -201 181 -14 8 -104 -69 -311 -268 -40 -38 -79 -73 -87 -77 -20 -12
-177 159 -230 250 -25 42 -57 113 -72 157 -23 71 -27 100 -31 258 l-4 177
-582 -2 -581 -3 -3 -472 -2 -473 150 0 c294 0 388 -41 652 -284 l137 -126 -87
-81 c-48 -45 -97 -92 -109 -105 l-22 -23 102 -98 c56 -54 103 -100 105 -103 3
-7 -205 -202 -282 -264 -76 -61 -180 -112 -271 -131 -44 -9 -127 -15 -222 -15
l-153 0 0 -480 0 -480 585 0 585 0 0 93 c0 180 60 331 183 463 38 41 73 72 77
69 4 -3 14 3 21 13 13 16 12 16 -6 2 -20 -14 -20 -14 -1 7 10 13 23 20 28 17
4 -3 7 0 6 8 -2 7 3 12 9 11 7 -2 12 3 10 10 -1 6 4 11 11 9 8 -1 11 2 8 7 -3
5 9 20 27 34 l34 25 59 -54 c32 -30 85 -78 116 -106 32 -28 55 -56 51 -62 -3
-6 -2 -8 2 -3 5 4 26 -9 46 -29 32 -31 41 -35 53 -25 8 7 21 9 27 5 7 -4 9 -3
6 3 -3 5 13 27 36 49 41 38 41 38 12 4 -17 -19 15 12 71 69 63 65 105 101 113
97 7 -5 10 -2 9 6 -2 7 3 12 10 10 8 -1 11 2 8 7 -3 5 1 14 8 20 11 10 22 5
50 -20 20 -17 33 -36 29 -42 -3 -5 -1 -7 5 -3 11 7 25 -9 28 -32 2 -7 -4 -16
-12 -19 -8 -3 -14 -9 -14 -15 0 -5 5 -6 10 -3 6 3 10 1 10 -5 0 -6 5 -8 11 -4
8 4 8 0 0 -15 -11 -20 -8 -25 12 -22 5 1 6 -3 2 -9 -3 -5 5 -14 19 -20 29 -11
36 -23 9 -13 -31 11 -62 44 -56 60 4 10 1 14 -7 11 -16 -5 -51 22 -44 34 3 4
2 8 -3 9 -4 0 -20 3 -35 5 -14 2 -32 -2 -40 -9 -7 -8 -19 -12 -26 -9 -7 2 -11
-2 -10 -8 2 -7 -3 -15 -11 -18 -10 -3 -11 0 -5 9 6 12 5 12 -9 0 -10 -8 -15
-16 -13 -19 9 -9 -14 -42 -29 -42 -8 0 -15 -6 -15 -14 0 -8 -7 -17 -16 -20 -8
-3 -12 -2 -9 4 3 6 4 10 1 10 -3 0 -10 -10 -17 -21 -9 -17 -8 -20 3 -15 7 4 2
-1 -12 -11 -13 -10 -33 -28 -44 -40 -10 -12 -24 -20 -29 -16 -6 3 -7 1 -4 -4
4 -6 -2 -18 -12 -27 -13 -12 -21 -14 -26 -6 -3 5 -9 8 -13 6 -8 -4 -27 14 -30
29 -1 6 -6 10 -12 10 -5 0 -29 21 -54 48 -25 26 -50 47 -56 47 -6 0 -8 4 -5
10 3 6 2 10 -4 10 -5 0 -27 17 -49 39 -56 56 -79 66 -101 47 -10 -9 -21 -13
-25 -9 -4 5 -6 2 -4 -5 2 -8 -6 -19 -17 -25 -11 -7 -24 -18 -28 -24 -4 -7 -13
-13 -20 -13 -16 0 -58 -50 -51 -61 3 -5 0 -9 -5 -9 -15 0 -72 -80 -65 -91 3
-5 0 -9 -5 -9 -6 0 -11 -7 -11 -16 0 -11 -6 -14 -20 -9 -11 4 -20 2 -20 -4 0
-6 3 -10 8 -8 9 3 12 -6 12 -34 0 -11 -4 -18 -8 -15 -5 3 -9 -45 -9 -106 -1
-108 0 -113 35 -181 20 -39 53 -86 74 -105 20 -18 36 -39 35 -45 -1 -7 3 -11
10 -10 6 2 28 -16 48 -40 20 -23 39 -41 43 -40 11 3 52 -39 47 -48 -7 -10 50
-50 59 -42 4 4 4 -1 0 -11 -5 -12 -9 -14 -14 -6 -6 9 -9 9 -14 1 -10 -15 -29
-2 -22 15 3 7 1 16 -3 19 -5 3 -12 -2 -15 -12 -7 -17 21 -56 34 -48 10 6 7
-22 -3 -31 -4 -4 -7 0 -7 10 0 9 -5 14 -10 11 -6 -4 -7 -12 -4 -18 4 -7 -5 -1
-21 13 -16 14 -24 18 -19 10 5 -8 9 -17 10 -20 0 -3 4 -13 9 -23 6 -14 10 -15
16 -6 14 23 39 19 39 -6 0 -13 4 -27 10 -30 5 -3 7 0 4 8 -3 8 -2 17 3 20 4 3
8 -12 8 -33 1 -21 -3 -36 -7 -34 -7 5 -12 -10 -9 -28 2 -12 -17 -10 -22 2 -3
6 -4 5 -3 -2 1 -7 13 -15 26 -16 19 -3 22 0 16 15 -6 15 -5 16 6 5 11 -11 10
-16 -6 -27 -10 -8 -15 -19 -11 -24 7 -13 35 10 35 29 0 6 5 8 10 5 6 -3 10 -1
10 6 0 7 3 9 6 6 4 -4 2 -13 -4 -20 -7 -8 -8 -17 -4 -21 4 -4 3 -6 -3 -4 -13
4 -17 -11 -9 -35 4 -13 9 -15 18 -8 16 13 20 -28 4 -46 -8 -11 -7 -12 7 -6 15
5 17 3 12 -12 -7 -16 -5 -16 10 -4 15 12 16 12 10 -4 -4 -10 -7 -21 -7 -23 0
-3 -112 97 -250 221 l-249 225 -732 -2 -731 -3 388 -346 c348 -309 752 -672
1448 -1298 126 -113 241 -216 255 -228 l27 -21 85 76 c933 837 1376 1234 1619
1451 428 382 1819 1627 2135 1910 149 133 271 246 273 250 2 5 -32 39 -74 77
-140 125 -711 641 -1244 1124 -288 261 -618 560 -734 664 -116 104 -283 255
-371 335 -88 81 -212 194 -275 252 -64 57 -289 261 -500 453 -507 461 -594
540 -600 546 -38 40 -311 280 -317 279 -4 0 -215 -188 -469 -417z m895 -1356
c8 -10 9 -16 1 -21 -5 -3 -10 1 -10 9 0 10 -6 13 -17 9 -11 -4 -14 -3 -9 5 10
16 21 15 35 -2z m135 -58 c-7 -12 -34 10 -31 25 1 7 -7 11 -18 10 -11 -1 -14
0 -7 3 6 3 9 10 6 15 -3 6 -12 5 -22 -3 -15 -12 -16 -11 -3 5 13 17 16 16 47
-14 18 -18 31 -36 28 -41z m-138 13 c-4 -5 0 -11 6 -14 10 -3 10 -7 1 -19 -13
-15 -48 -18 -58 -5 -3 4 -2 5 1 2 4 -2 15 7 26 20 19 24 35 35 24 16z m11 -66
c0 -8 -4 -15 -9 -15 -10 0 -11 14 -1 23 9 10 10 9 10 -8z m386 -32 c-29 -2
-77 -2 -105 0 -29 2 -6 3 52 3 58 0 81 -1 53 -3z m-358 -53 c3 -5 1 -10 -4
-10 -6 0 -11 5 -11 10 0 6 2 10 4 10 3 0 8 -4 11 -10z m6 -53 c-10 -9 -11 -8
-5 6 3 10 9 15 12 12 3 -3 0 -11 -7 -18z m-196 -956 c369 -337 752 -690 773
-713 l23 -25 -238 -220 c-131 -121 -341 -314 -467 -429 -126 -115 -257 -235
-292 -267 -35 -32 -68 -57 -73 -55 -5 2 -94 82 -198 178 -104 96 -340 314
-526 484 -185 169 -337 312 -337 316 0 9 168 164 745 688 l319 290 56 -50 c30
-28 127 -117 215 -197z m385 69 c-6 -58 -7 -61 -75 -124 l-70 -64 -27 20 c-16
11 -28 25 -27 31 0 8 196 197 204 197 0 0 -2 -27 -5 -60z m-1140 -165 l-30
-30 -74 74 c-61 61 -75 80 -74 105 0 72 4 71 109 -26 l99 -92 -30 -31z m1929
-84 c2 0 -2 -8 -9 -16 -7 -8 -16 -13 -19 -10 -4 2 -8 -2 -8 -10 0 -21 13 -19
22 3 6 16 7 16 16 -1 6 -9 15 -14 21 -11 7 5 8 2 4 -5 -5 -7 -14 -10 -22 -7
-8 3 -13 0 -11 -6 1 -5 -7 -12 -17 -14 -10 -1 -22 -7 -25 -12 -6 -9 -36 -22
-47 -21 -4 0 -10 -3 -13 -8 -3 -5 -26 -24 -51 -43 -74 -56 -210 -182 -210
-193 0 -6 44 -53 98 -103 l97 -92 -94 -95 c-51 -52 -92 -99 -90 -104 8 -19
165 -157 219 -192 31 -20 62 -42 70 -49 8 -6 26 -20 39 -30 22 -17 22 -19 7
-34 -17 -17 -21 -30 -8 -25 4 1 8 -3 10 -8 3 -16 -15 -12 -83 15 -35 13 -177
127 -279 223 l-99 93 64 59 c35 33 83 80 106 104 l42 44 -38 36 c-20 20 -69
66 -109 103 l-71 67 77 74 c234 226 337 293 411 268z m-2393 -123 l115 -101
-32 -33 -32 -33 -81 77 c-45 43 -108 104 -141 135 l-60 57 58 0 58 0 115 -102z
m2114 96 c0 -6 -139 -139 -227 -218 -41 -37 -42 -37 -68 -20 -14 9 -25 24 -23
33 2 9 50 60 108 113 105 97 105 97 158 98 28 0 52 -3 52 -6z m-2034 -815 l32
-31 -36 -31 c-21 -18 -71 -62 -113 -99 l-76 -68 -61 0 -61 0 107 99 c59 54
120 113 136 130 17 17 32 31 35 31 3 0 19 -14 37 -31z m1994 -172 l65 -57 -60
0 c-65 0 -73 5 -235 153 l-54 50 34 28 34 29 75 -73 c42 -40 105 -98 141 -130z
m-1528 -306 c-15 -12 -53 -48 -84 -78 -32 -31 -58 -53 -58 -50 0 3 -21 -14
-47 -38 -33 -31 -50 -41 -55 -32 -9 15 -8 87 2 84 4 -1 28 21 54 48 26 28 45
43 41 35 -3 -8 19 13 51 47 l56 63 33 -28 33 -27 -26 -24z m982 -53 c3 3 6 -4
6 -16 0 -20 10 -27 33 -23 4 0 7 -8 7 -19 0 -13 5 -18 15 -14 8 4 15 1 15 -5
0 -12 -11 -14 -34 -5 -9 3 -13 10 -10 15 3 5 -1 9 -8 10 -7 0 -21 2 -31 4 -9
2 -15 -1 -11 -6 10 -17 -25 -9 -38 9 -7 10 -22 25 -34 33 -11 7 -40 31 -64 52
l-44 37 30 31 29 30 67 -69 c37 -39 69 -68 72 -64z m5 -84 c-10 -12 -9 -13 5
-8 9 3 16 2 16 -4 0 -11 -18 -11 -38 2 -10 6 -10 11 -1 22 6 7 15 11 21 8 5
-3 4 -12 -3 -20z m-800 -1007 c8 -10 7 -14 -2 -14 -8 0 -14 6 -14 14 0 7 1 13
2 13 2 0 8 -6 14 -13z m-25 -38 c-3 -5 -10 -7 -15 -3 -5 3 -7 10 -3 15 3 5 10
7 15 3 5 -3 7 -10 3 -15z m380 -40 c-9 -10 -21 -16 -26 -13 -12 8 8 31 27 31
13 0 13 -3 -1 -18z m-229 -301 c4 -3 2 -9 -3 -12 -5 -3 -15 1 -21 8 -10 11 -9
14 3 12 9 -1 18 -5 21 -8z m125 -71 c0 -2 -10 -12 -22 -23 l-23 -19 19 23 c18
21 26 27 26 19z"/>
<path d="M5526 6911 c-4 -5 -2 -12 3 -15 5 -4 12 -2 15 3 4 5 2 12 -3 15 -5 4
-12 2 -15 -3z"/>
<path d="M4840 5453 c-155 -142 -320 -292 -365 -333 -48 -43 -81 -79 -77 -86
6 -10 675 -620 715 -652 14 -12 29 -2 125 85 497 452 622 568 620 574 -4 9
-717 663 -728 667 -4 2 -135 -113 -290 -255z m605 -127 c168 -154 304 -283
303 -286 -2 -4 -142 -134 -312 -288 l-309 -281 -63 57 c-35 31 -176 158 -313
282 -137 124 -250 227 -250 230 -1 3 52 53 117 112 64 59 203 185 307 282 105
97 195 175 202 173 7 -1 150 -128 318 -281z"/>
<path d="M4984 5377 c-72 -67 -181 -169 -244 -227 l-113 -105 59 -56 c172
-162 438 -399 445 -397 11 4 498 442 498 448 1 8 -497 460 -506 460 -4 -1 -67
-56 -139 -123z"/>
<path d="M4529 4193 c-13 -16 -12 -17 4 -4 16 13 21 21 13 21 -2 0 -10 -8 -17
-17z"/>
<path d="M5490 7059 c0 -5 -6 -7 -12 -3 -7 4 -10 4 -6 -1 4 -4 2 -15 -4 -24
-10 -12 -7 -12 8 2 11 9 24 14 28 10 4 -4 4 0 0 10 -7 19 -14 22 -14 6z"/>
<path d="M5515 7030 c-3 -5 -1 -10 4 -10 6 0 11 5 11 10 0 6 -2 10 -4 10 -3 0
-8 -4 -11 -10z"/>
<path d="M5449 6998 c-5 -18 -6 -38 -1 -34 7 8 12 36 6 36 -2 0 -4 -1 -5 -2z"/>
<path d="M5477 6963 c5 -12 3 -14 -8 -8 -12 8 -12 6 0 -8 22 -28 41 -22 28 8
-13 27 -30 35 -20 8z"/>
<path d="M2914 6762 c-114 -105 -1686 -1524 -1793 -1619 -64 -56 -116 -107
-116 -112 0 -5 75 -76 166 -158 91 -81 248 -222 350 -313 291 -260 512 -458
989 -886 245 -220 451 -403 458 -408 9 -6 12 126 12 607 l0 614 -294 261
c-161 144 -298 268 -304 274 -10 12 45 63 563 524 l35 31 0 617 c0 339 -3 616
-7 616 -5 -1 -31 -22 -59 -48z"/>
<path d="M5766 6343 c-11 -11 -6 -21 12 -27 9 -3 5 -4 -10 -2 -15 2 -25 -1
-22 -5 7 -12 41 -11 49 1 7 12 -20 42 -29 33z"/>
<path d="M3420 5543 c-50 -8 -146 -47 -191 -77 -25 -17 -146 -121 -267 -230
-176 -157 -220 -202 -211 -212 6 -8 101 -94 210 -191 282 -252 348 -288 529
-288 171 0 300 61 472 224 l87 82 -85 81 c-46 44 -92 87 -101 93 -15 12 -9 20
57 82 41 39 89 82 105 97 l30 26 -70 66 c-152 142 -248 203 -370 234 -73 19
-135 23 -195 13z"/>
<path d="M5467 4143 c3 -7 8 -13 12 -13 4 0 8 6 8 13 0 8 -6 14 -13 14 -7 0
-10 -6 -7 -14z"/>
<path d="M5309 4103 c-13 -16 -12 -17 4 -4 9 7 17 15 17 17 0 8 -8 3 -21 -13z"/>
<path d="M5284 4072 c4 -3 14 -7 22 -8 9 -1 13 0 10 4 -4 3 -14 7 -22 8 -9 1
-13 0 -10 -4z"/>
<path d="M4785 3241 c6 -11 4 -13 -8 -8 -21 8 -33 -11 -17 -26 10 -9 11 -9 6
3 -4 8 1 5 10 -7 20 -28 30 -29 37 -4 3 12 -3 27 -16 38 -12 10 -17 12 -12 4z
m18 -36 c-7 -21 -12 -19 -10 4 0 11 5 18 9 15 4 -3 5 -11 1 -19z"/>
<path d="M4763 3105 c0 -8 4 -12 9 -9 5 3 6 10 3 15 -9 13 -12 11 -12 -6z"/>
<path d="M4835 3034 c1 -19 6 -38 10 -42 5 -4 5 -2 1 5 -3 6 -2 14 3 17 5 3 7
15 4 26 -9 35 -20 31 -18 -6z"/>
</g>
</svg>
