<?xml version="1.0" standalone="no"?>
<!DOCTYPE svg PUBLIC "-//W3C//DTD SVG 20010904//EN"
 "http://www.w3.org/TR/2001/REC-SVG-20010904/DTD/svg10.dtd">
<svg version="1.0" xmlns="http://www.w3.org/2000/svg"
 width="1024.000000pt" height="1024.000000pt" viewBox="0 0 1024.000000 1024.000000"
 preserveAspectRatio="xMidYMid meet">

<g transform="translate(0.000000,1024.000000) scale(0.100000,-0.100000)"
fill="#020617" stroke="red" strokeWidht="3">
<path d="M0 5120 l0 -5120 5120 0 5120 0 0 5120 0 5120 -5120 0 -5120 0 0
-5120z m4975 3366 c15 -11 19 -27 20 -71 l0 -58 -87 -17 c-272 -56 -496 -237
-604 -490 -40 -91 -64 -206 -64 -297 l1 -68 81 -40 c45 -22 86 -41 90 -43 4
-2 8 32 9 75 1 72 13 185 19 173 6 -14 7 -71 0 -75 -4 -3 -6 -46 -3 -97 3 -71
8 -95 20 -103 221 -139 471 -410 584 -632 l42 -82 38 75 c114 223 365 497 563
615 l58 34 -5 125 c-9 230 -76 370 -243 505 -67 55 -159 100 -237 116 -28 6
-56 15 -61 20 -19 18 54 9 117 -14 238 -87 405 -280 432 -502 12 -94 12 -96
14 -168 l1 -67 91 46 92 46 -6 101 c-15 283 -184 536 -447 671 -94 48 -167 72
-253 82 l-57 7 0 63 c0 85 12 92 123 69 139 -28 281 -95 407 -191 206 -157
349 -413 375 -671 4 -40 11 -73 15 -73 5 0 51 11 102 25 51 14 152 30 224 37
358 32 667 -69 902 -296 173 -167 276 -363 318 -606 24 -139 9 -395 -31 -521
-6 -17 0 -19 73 -19 168 0 382 -64 528 -158 247 -160 402 -387 454 -665 11
-62 11 -70 -5 -87 -14 -15 -31 -20 -72 -20 -34 0 -55 4 -57 13 -2 6 -9 45 -15
86 -31 202 -171 413 -355 536 -152 101 -305 145 -498 145 l-113 -1 -39 -84
c-32 -70 -37 -87 -26 -100 10 -13 9 -15 -8 -15 -15 0 -34 -20 -65 -67 -167
-259 -464 -510 -674 -573 -40 -12 -58 -30 -30 -30 25 0 244 -117 322 -172 152
-107 303 -265 388 -405 29 -48 44 -63 69 -68 21 -5 27 -10 17 -15 -7 -5 -17
-6 -21 -4 -13 8 -10 0 34 -91 l42 -87 130 5 c214 8 373 64 526 183 156 122
276 324 305 512 l7 42 57 0 c64 0 81 -11 81 -53 0 -82 -78 -277 -158 -393
-157 -230 -400 -383 -683 -429 -52 -8 -121 -15 -155 -15 l-61 0 19 -87 c25
-116 34 -314 19 -427 -54 -401 -346 -749 -731 -870 -213 -68 -472 -74 -715
-16 -44 10 -87 21 -96 25 -14 5 -18 -5 -24 -62 -11 -104 -40 -206 -89 -308
-55 -117 -92 -172 -175 -259 -150 -156 -308 -246 -506 -287 -80 -16 -92 -17
-112 -3 -20 12 -23 23 -23 74 l0 60 33 0 c51 0 184 37 256 70 265 125 454 401
469 688 4 77 2 102 -8 102 -6 0 -50 18 -95 39 -59 28 -82 34 -78 23 4 -10 2
-13 -5 -8 -7 4 -12 13 -12 20 0 7 -26 30 -57 51 -228 150 -442 373 -561 584
-31 56 -37 62 -46 46 -90 -153 -226 -326 -345 -438 -71 -67 -202 -169 -262
-204 -16 -9 -29 -25 -29 -35 0 -21 -17 -33 -22 -16 -3 9 -30 1 -91 -27 l-86
-40 -1 -81 c-1 -363 304 -708 678 -765 l82 -12 0 -57 c0 -31 -5 -61 -12 -68
-38 -38 -277 26 -423 115 -264 160 -444 441 -472 735 -3 37 -6 68 -7 68 -1 0
-33 -9 -71 -20 -93 -27 -274 -50 -388 -50 -567 0 -1020 379 -1103 923 -19 121
-13 294 15 430 l17 87 -55 0 c-198 1 -432 75 -603 191 -181 123 -334 345 -389
563 -30 121 -23 136 66 136 64 0 65 0 65 -28 0 -44 38 -168 72 -235 49 -99
100 -167 181 -243 167 -159 363 -234 614 -234 l102 0 41 86 c22 48 40 88 40
89 0 2 -80 5 -177 7 -162 4 -185 7 -251 31 -171 62 -301 176 -381 334 -41 82
-74 219 -45 190 3 -3 10 -24 15 -48 15 -65 71 -177 123 -246 87 -114 248 -213
391 -239 58 -10 181 -14 252 -8 l88 7 55 86 c73 114 284 327 400 403 91 59
195 114 274 143 l49 19 -34 11 c-59 21 -181 86 -269 143 -118 78 -337 299
-410 414 -44 70 -60 87 -80 88 -21 0 -22 2 -8 10 15 9 14 17 -16 83 -18 39
-36 80 -39 90 -6 15 -21 17 -122 17 -269 0 -484 -91 -654 -276 -105 -115 -175
-253 -201 -394 -22 -121 -13 -110 -80 -110 -54 0 -62 2 -72 25 -31 68 67 346
171 485 190 254 462 400 779 417 61 3 112 7 112 8 0 2 -9 46 -20 99 -54 264
-30 502 74 722 204 430 630 662 1134 616 70 -7 172 -23 227 -37 55 -14 103
-25 106 -25 4 0 9 28 13 63 19 175 93 365 194 498 53 69 160 173 227 219 116
80 276 142 436 169 3 1 14 -5 24 -13z m9 -335 c-5 -4 -40 -16 -79 -25 -126
-31 -236 -104 -326 -217 -48 -59 -109 -173 -109 -203 0 -9 -4 -16 -9 -16 -5 0
-11 -6 -14 -12 -2 -7 -2 1 0 17 6 42 67 169 105 219 95 123 231 211 370 240
64 13 79 13 62 -3z m145 -776 c68 -35 49 -129 -29 -141 -47 -8 -90 25 -90 67
0 72 56 107 119 74z m-2499 -1547 c0 -4 -51 -7 -113 -7 -192 -1 -337 -53 -464
-166 -102 -92 -187 -240 -208 -362 -4 -24 -11 -43 -16 -43 -16 0 -10 49 15
124 79 234 282 413 516 456 53 10 270 8 270 -2z m5065 2 c3 -6 -4 -10 -17 -10
-18 0 -20 2 -8 10 19 12 18 12 25 0z m95 6 c0 -2 -9 -6 -20 -9 -11 -3 -18 -1
-14 4 5 9 34 13 34 5z m-212 -13 c-10 -2 -28 -2 -40 0 -13 2 -5 4 17 4 22 1
32 -1 23 -4z m55 0 c-7 -2 -19 -2 -25 0 -7 3 -2 5 12 5 14 0 19 -2 13 -5z
m104 1 c-3 -3 -12 -4 -19 -1 -8 3 -5 6 6 6 11 1 17 -2 13 -5z m107 -1 c4 -4
19 -9 34 -11 15 -1 63 -21 108 -42 184 -89 328 -281 360 -479 12 -75 -12 -43
-34 45 -29 116 -79 203 -171 294 -77 77 -170 134 -258 161 -24 7 -43 15 -43
19 0 3 -17 5 -37 3 -30 -2 -34 -1 -18 6 25 12 49 13 59 4z m-5214 -583 c27
-14 41 -64 28 -100 -11 -34 -35 -50 -73 -50 -38 0 -60 15 -75 50 -14 34 0 83
29 100 21 12 68 13 91 0z m5000 0 c27 -14 41 -64 28 -100 -11 -34 -35 -50 -73
-50 -38 0 -60 15 -75 50 -14 34 0 83 29 100 21 12 68 13 91 0z m708 -237 c-5
-27 -30 -91 -55 -143 -38 -79 -59 -107 -128 -176 -91 -90 -206 -157 -290 -170
-70 -10 -64 1 12 25 203 62 389 257 434 454 17 71 41 80 27 10z m-566 -503
c-18 -4 -78 -7 -135 -7 l-102 0 75 7 c41 3 102 7 135 7 49 1 54 0 27 -7z
m-2623 -1476 c28 -35 26 -69 -4 -99 -49 -50 -135 -15 -135 55 0 68 96 98 139
44z m-689 -354 c28 -121 113 -260 203 -334 67 -55 183 -111 260 -126 69 -13
90 -30 36 -30 -47 0 -174 46 -237 86 -145 91 -247 238 -286 411 -17 75 -22
184 -8 197 4 4 10 -28 13 -71 3 -43 12 -103 19 -133z m1280 -4 c-15 -75 -78
-200 -134 -268 -87 -106 -254 -203 -372 -215 -80 -8 -66 11 21 30 118 25 198
70 291 162 91 91 142 178 170 290 23 96 27 105 31 77 3 -12 -1 -46 -7 -76z"/>
<path d="M3419 7454 c-358 -64 -635 -317 -726 -663 -22 -83 -26 -117 -26 -251
0 -210 34 -362 121 -540 l37 -75 166 -3 166 -2 7 37 c3 21 6 64 6 96 l0 57
-124 0 c-87 0 -127 4 -134 13 -18 22 -52 183 -64 305 -42 418 149 727 517 839
89 27 471 26 600 -1 50 -10 93 -24 97 -30 4 -6 8 -57 8 -114 l0 -103 78 3 77
3 3 151 2 151 -77 36 c-91 41 -236 82 -346 96 -106 15 -295 12 -388 -5z"/>
<path d="M6360 7459 c-108 -14 -389 -104 -405 -130 -3 -5 -3 -76 1 -159 l7
-150 61 0 c34 0 66 4 73 8 8 5 13 44 15 112 l3 104 30 8 c82 22 265 40 405 41
130 0 169 -3 240 -22 219 -58 402 -214 487 -416 65 -154 72 -413 17 -650 -9
-38 -21 -76 -27 -82 -6 -9 -45 -13 -129 -13 l-119 0 3 -92 3 -93 161 -3 161
-2 45 97 c77 165 107 290 115 478 12 296 -66 504 -262 700 -149 149 -310 233
-505 264 -75 13 -285 12 -380 0z"/>
<path d="M5861 7284 c-133 -73 -331 -226 -331 -255 0 -5 84 -9 195 -9 151 0
197 3 201 13 2 7 3 75 2 150 l-3 137 -64 -36z"/>
<path d="M4252 7168 l3 -143 198 -3 c122 -1 197 1 197 7 0 32 -346 281 -390
281 -7 0 -10 -44 -8 -142z"/>
<path d="M3515 7269 c-306 -24 -553 -229 -625 -518 -34 -136 -28 -344 17 -538
l16 -73 116 -1 c64 0 191 -1 283 -2 92 -1 176 0 187 3 11 3 135 120 276 260
l256 254 -1 280 c0 154 -4 284 -8 288 -11 11 -246 46 -342 50 -47 3 -125 1
-175 -3z m58 -561 c37 -44 2 -118 -57 -118 -67 0 -93 83 -41 127 32 28 69 25
98 -9z"/>
<path d="M3489 6679 l-24 -20 28 17 c15 9 27 18 27 20 0 8 -8 4 -31 -17z"/>
<path d="M3496 6655 c-3 -8 -1 -15 4 -15 6 0 10 7 10 15 0 8 -2 15 -4 15 -2 0
-6 -7 -10 -15z"/>
<path d="M3533 6657 c-3 -6 -1 -7 5 -3 7 4 12 3 12 -2 0 -6 7 -13 16 -16 13
-5 14 -4 6 7 -7 8 -10 16 -7 19 3 2 -2 5 -10 5 -9 0 -19 -5 -22 -10z"/>
<path d="M3515 6620 c3 -5 12 -7 20 -3 21 7 19 13 -6 13 -11 0 -18 -4 -14 -10z"/>
<path d="M6405 7269 c-49 -5 -128 -17 -175 -27 l-85 -17 -6 -40 c-4 -21 -7
-150 -8 -285 l-2 -245 261 -260 260 -260 183 0 c100 0 236 2 302 5 l120 5 24
110 c19 88 24 142 24 270 2 183 -15 263 -81 390 -66 128 -220 260 -362 310
-118 42 -301 60 -455 44z m318 -557 c18 -16 25 -88 7 -77 -5 3 -6 13 -3 22 4
10 2 14 -4 10 -6 -4 -10 4 -9 21 1 23 -3 27 -24 24 -14 -1 -31 -3 -37 -4 -9
-1 -10 -5 -2 -15 8 -9 8 -17 0 -26 -6 -8 -7 -17 -3 -22 4 -4 -3 -3 -14 3 -12
6 -24 8 -28 5 -10 -11 -7 37 5 58 6 12 17 18 24 15 8 -3 17 -1 21 5 7 12 43 2
67 -19z m-20 -22 c-3 -11 -10 -20 -15 -20 -5 0 -6 -6 -2 -12 4 -8 3 -10 -2 -5
-5 5 -9 12 -9 15 0 4 -4 13 -9 21 -6 9 -5 12 0 8 6 -3 16 -2 24 4 8 5 16 9 17
9 0 0 -1 -9 -4 -20z m-3 -96 c0 -2 -15 -4 -32 -3 -27 0 -29 2 -13 8 18 8 45 4
45 -5z"/>
<path d="M6621 6681 c-8 -6 -9 -11 -3 -15 6 -3 14 -1 17 5 9 14 2 20 -14 10z"/>
<path d="M4268 6992 c-15 -3 -18 -15 -18 -87 l0 -83 -48 -48 c-26 -27 -68 -67
-92 -88 l-43 -39 1 -104 c2 -122 5 -129 102 -243 40 -47 82 -102 93 -122 22
-38 22 -38 87 -38 183 0 346 -56 472 -162 96 -80 194 -241 239 -391 21 -72 33
-78 43 -22 18 93 97 247 174 337 127 149 282 222 503 235 l106 6 46 61 c25 34
71 94 102 133 64 81 74 113 75 228 l0 80 -90 85 -90 86 0 86 0 87 -217 3 -218
4 -52 -53 c-61 -62 -179 -236 -234 -344 -21 -43 -39 -83 -39 -88 0 -5 13 -14
30 -21 42 -17 107 -92 137 -156 18 -40 26 -78 29 -137 5 -80 4 -81 -13 -57
-71 102 -173 155 -283 147 -86 -6 -154 -40 -220 -114 l-52 -58 5 77 c8 123 74
238 169 297 l27 17 -53 105 c-68 135 -120 213 -243 367 -10 13 -46 15 -215 16
-112 1 -211 0 -220 -2z"/>
<path d="M4070 6833 l0 -158 77 77 76 76 5 81 5 81 -82 0 -81 0 0 -157z"/>
<path d="M5958 6978 c-5 -13 0 -160 5 -163 1 0 35 -32 75 -70 l72 -68 0 156 0
157 -74 0 c-50 0 -75 -4 -78 -12z"/>
<path d="M6130 6537 c0 -51 -6 -101 -14 -120 -7 -18 -52 -81 -100 -139 -47
-59 -86 -109 -86 -111 0 -2 25 -7 55 -10 31 -3 70 -15 88 -26 40 -24 77 -87
77 -130 0 -17 4 -31 9 -31 5 0 45 26 88 58 140 103 145 106 260 112 l103 5
-240 240 -240 240 0 -88z"/>
<path d="M3795 6376 l-239 -233 105 -5 c120 -5 132 -10 256 -104 47 -35 89
-64 93 -64 5 0 14 24 20 54 17 81 67 121 166 134 l55 7 -87 105 c-48 58 -93
121 -101 140 -9 19 -16 69 -17 112 -1 43 -4 80 -7 82 -3 3 -112 -100 -244
-228z"/>
<path d="M3190 6015 l0 -95 48 0 c28 0 57 7 71 17 36 24 171 155 171 165 0 4
-65 8 -145 8 l-145 0 0 -95z"/>
<path d="M3419 6005 l-106 -105 -62 0 -61 0 2 -207 3 -208 69 -47 c93 -64 244
-140 334 -169 l74 -23 35 42 c63 76 173 122 288 121 43 0 47 -2 31 -12 -89
-56 -137 -131 -144 -226 -7 -99 15 -158 88 -232 32 -32 54 -61 50 -64 -16 -10
-137 13 -188 35 -47 21 -130 97 -157 144 -11 18 -13 18 -80 -4 -99 -32 -223
-91 -321 -151 l-84 -52 2 -226 3 -226 56 -3 55 -3 94 -94 95 -95 137 0 c75 0
149 5 164 11 16 5 60 32 99 58 38 26 84 55 101 64 31 16 31 16 38 124 4 59 11
128 17 153 34 154 182 330 344 411 50 25 137 58 194 74 l104 28 -77 19 c-93
21 -223 81 -304 138 -108 75 -198 196 -243 329 -21 59 -43 257 -33 295 5 21 0
28 -33 44 -21 11 -56 35 -78 52 -22 18 -67 50 -99 71 l-59 39 -121 0 -121 0
-106 -105z"/>
<path d="M6372 6085 c-23 -13 -68 -44 -100 -68 -31 -24 -73 -53 -93 -65 l-36
-22 -6 -112 c-8 -134 -25 -208 -72 -305 -41 -83 -146 -196 -240 -258 -69 -46
-221 -110 -282 -120 -55 -9 -55 -21 -1 -29 63 -10 236 -81 298 -122 83 -56
181 -162 223 -241 47 -90 65 -161 73 -290 l7 -104 41 -21 c23 -11 61 -35 86
-53 96 -70 116 -75 268 -75 l139 0 94 95 93 95 63 0 63 0 0 220 0 219 -57 39
c-116 78 -325 179 -408 196 -28 6 -32 3 -53 -36 -28 -53 -79 -95 -151 -124
-57 -22 -171 -41 -171 -28 0 4 19 23 41 42 25 21 53 61 70 96 58 122 31 251
-74 350 l-52 49 71 -6 c39 -4 90 -13 113 -22 59 -21 130 -72 153 -111 23 -39
28 -39 146 7 138 55 331 165 370 212 9 11 12 65 10 208 l-3 194 -67 3 -67 3
-106 104 -105 105 -118 0 c-105 0 -121 -3 -160 -25z"/>
<path d="M6782 6014 l96 -95 59 3 58 3 3 93 3 92 -158 0 -158 0 97 -96z"/>
<path d="M2862 5861 c46 -77 136 -190 215 -270 46 -46 85 -82 86 -80 1 2 1 90
-1 194 l-3 190 -159 1 -160 1 22 -36z"/>
<path d="M7027 5893 c-4 -3 -7 -89 -7 -190 l0 -184 35 27 c46 35 160 170 224
266 28 42 51 79 51 82 0 8 -295 7 -303 -1z"/>
<path d="M4504 5858 c-17 -5 -53 -27 -80 -47 -109 -82 -140 -228 -78 -361 56
-118 145 -194 290 -247 65 -23 68 -23 116 -7 27 9 91 19 141 23 l92 6 7 91 c4
50 14 110 22 133 13 39 13 48 -5 99 -40 117 -146 239 -248 289 -46 22 -72 28
-141 30 -47 1 -99 -3 -116 -9z m196 -246 c66 -83 -40 -187 -124 -121 -35 28
-37 95 -3 126 40 38 95 36 127 -5z"/>
<path d="M5441 5850 c-110 -40 -227 -159 -271 -278 -12 -31 -19 -66 -17 -77 3
-11 12 -47 21 -80 9 -32 16 -87 16 -122 l0 -62 33 -5 c17 -3 64 -7 104 -10 39
-3 85 -12 101 -20 27 -14 35 -14 82 0 94 28 164 67 221 124 187 186 157 443
-63 535 -52 21 -160 19 -227 -5z m163 -241 c14 -17 26 -41 26 -54 0 -13 -12
-37 -26 -54 -56 -67 -170 -16 -149 67 18 75 101 98 149 41z"/>
<path d="M4630 5050 c-118 -43 -229 -141 -282 -248 -26 -53 -31 -75 -31 -136
0 -92 25 -148 95 -211 152 -137 402 -73 543 140 56 85 70 137 56 199 -7 28
-15 92 -18 142 l-6 91 -91 6 c-50 3 -111 13 -135 21 -55 20 -64 20 -131 -4z
m65 -286 c42 -46 30 -110 -25 -139 -56 -29 -120 14 -120 79 1 76 94 115 145
60z"/>
<path d="M5415 5053 c-22 -8 -82 -17 -132 -20 l-93 -6 -1 -61 c-1 -74 -5 -105
-25 -174 -18 -66 -10 -99 49 -190 164 -256 475 -295 604 -75 31 53 42 162 24
230 -29 106 -159 238 -278 283 -77 29 -101 31 -148 13z m186 -292 c58 -58 23
-141 -61 -141 -55 0 -80 26 -80 84 0 36 5 48 26 65 38 30 80 27 115 -8z"/>
<path d="M3056 4726 c-86 -86 -236 -290 -236 -320 0 -8 51 -10 172 -6 l173 5
3 208 c2 136 -1 207 -7 207 -6 0 -53 -42 -105 -94z"/>
<path d="M7020 4601 l0 -200 165 -3 c105 -2 165 1 165 7 0 23 -139 213 -213
291 -125 133 -117 140 -117 -95z"/>
<path d="M5080 4706 c0 -35 -73 -193 -126 -273 -129 -193 -318 -298 -561 -310
l-113 -6 -49 -66 c-26 -36 -74 -99 -105 -139 l-56 -74 0 -102 0 -102 90 -90
90 -90 0 -62 0 -62 214 0 214 0 62 67 c71 77 150 189 202 283 55 100 55 101 4
138 -89 62 -150 194 -144 309 l3 58 21 -46 c28 -60 75 -106 143 -137 45 -21
64 -24 125 -20 118 8 210 69 255 168 l21 45 0 -71 c0 -87 -20 -157 -63 -221
-31 -44 -99 -105 -128 -115 -26 -9 140 -269 253 -400 l51 -58 223 0 224 0 0
61 0 62 79 81 c44 44 83 77 87 73 4 -4 -27 -43 -70 -86 l-77 -80 3 -53 3 -53
77 -3 78 -3 0 249 -1 249 -27 41 c-15 22 -62 87 -105 144 l-79 103 -101 6
c-56 4 -131 14 -167 23 -141 37 -287 133 -382 251 -51 63 -118 191 -139 265
-14 50 -29 74 -29 46z"/>
<path d="M2782 4333 c-93 -183 -140 -463 -113 -668 28 -209 110 -374 261 -525
131 -130 266 -207 436 -247 109 -25 401 -25 526 0 102 20 223 60 291 94 l48
24 -3 142 -3 142 -77 3 c-75 3 -78 2 -78 -20 -1 -46 -12 -183 -14 -186 -11
-10 -165 -34 -286 -43 -345 -27 -544 33 -725 215 -129 130 -191 276 -202 480
-6 111 13 275 45 386 l19 65 129 5 129 5 0 80 0 80 -182 3 -182 2 -19 -37z"/>
<path d="M3190 4285 l0 -85 130 0 c72 0 130 3 130 8 0 4 -35 42 -78 85 -77 76
-79 77 -130 77 l-52 0 0 -85z"/>
<path d="M6850 4337 c-20 -18 -59 -57 -87 -87 l-51 -55 121 3 c175 3 163 -4
159 92 l-4 80 -51 0 c-44 -1 -57 -6 -87 -33z"/>
<path d="M7022 4288 l3 -83 121 -3 122 -3 16 -67 c51 -211 61 -410 26 -548
-74 -294 -311 -501 -612 -533 -145 -16 -435 0 -550 30 l-38 10 0 105 0 105
-77 -3 -78 -3 2 -115 c2 -63 3 -129 3 -147 0 -29 5 -34 48 -53 93 -42 223 -80
334 -96 148 -22 366 -15 486 15 314 79 554 311 648 628 66 223 33 539 -81 786
l-26 57 -175 0 -175 0 3 -82z"/>
<path d="M6150 4286 c0 -96 -80 -176 -175 -176 -19 0 -35 -4 -35 -9 0 -5 35
-53 78 -107 118 -151 112 -137 112 -236 0 -49 3 -88 8 -88 4 0 120 113 257
250 l250 250 -105 0 c-58 0 -123 5 -145 11 -21 6 -83 40 -136 75 -53 35 -99
64 -103 64 -3 0 -6 -15 -6 -34z"/>
<path d="M3930 4263 c-120 -83 -149 -93 -285 -93 l-120 -1 255 -249 255 -249
6 88 c6 99 3 93 126 248 40 51 73 94 73 97 0 3 -15 6 -32 6 -53 0 -102 18
-131 47 -30 33 -57 92 -57 128 0 34 -15 31 -90 -22z"/>
<path d="M2919 4153 c-19 -50 -40 -166 -49 -273 -35 -390 165 -696 517 -792
131 -35 389 -30 601 13 l52 10 0 259 0 258 -270 268 c-149 147 -276 272 -283
276 -6 4 -135 8 -285 8 l-272 0 -11 -27z m648 -426 c25 -24 26 -71 3 -100 -51
-64 -151 -3 -120 74 19 46 82 60 117 26z"/>
<path d="M3505 3709 c-4 -6 -5 -12 -2 -15 2 -3 7 2 10 11 7 17 1 20 -8 4z"/>
<path d="M3533 3705 c0 -8 4 -12 9 -9 5 3 6 10 3 15 -9 13 -12 11 -12 -6z"/>
<path d="M3470 3681 c0 -7 -5 -9 -12 -5 -7 5 -8 3 -3 -5 5 -9 10 -10 18 -2 6
6 8 14 4 18 -4 3 -7 1 -7 -6z"/>
<path d="M3557 3683 c-4 -3 -7 -11 -7 -17 0 -6 5 -5 12 2 6 6 9 14 7 17 -3 3
-9 2 -12 -2z"/>
<path d="M3493 3655 c0 -8 4 -15 9 -15 4 0 8 4 8 9 0 6 -4 12 -8 15 -5 3 -9
-1 -9 -9z"/>
<path d="M3534 3650 c1 -8 10 -16 20 -18 11 -3 16 0 11 7 -3 6 -10 9 -15 6 -5
-3 -10 0 -13 7 -2 8 -3 7 -3 -2z"/>
<path d="M6407 3902 l-277 -277 1 -253 1 -253 26 -10 c59 -22 234 -42 382 -43
128 0 170 4 242 22 254 63 432 237 504 492 28 99 25 312 -5 455 -13 61 -27
118 -32 128 -9 16 -33 17 -287 17 l-277 0 -278 -278z m278 -169 c-5 -14 -4
-15 6 -6 19 18 49 -12 49 -49 0 -36 -40 -78 -73 -78 -67 0 -95 82 -43 127 33
28 71 32 61 6z"/>
<path d="M6690 3679 c0 -5 5 -7 10 -4 6 3 10 8 10 11 0 2 -4 4 -10 4 -5 0 -10
-5 -10 -11z"/>
<path d="M4070 3467 l0 -138 78 3 77 3 3 47 c3 49 4 49 -121 182 l-37 40 0
-137z"/>
<path d="M4254 3168 c3 -72 8 -134 11 -136 5 -6 115 56 185 104 73 50 190 146
190 156 0 4 -88 8 -197 8 l-196 0 7 -132z"/>
<path d="M5565 3255 c71 -64 188 -147 275 -194 41 -22 78 -41 83 -41 4 0 7 63
7 140 l0 140 -207 0 -208 -1 50 -44z"/>
</g>
</svg>
